{
  "accessors": [
    {
      "bufferView": 2,
      "componentType": 5126,
      "count": 2335,
      "max": [
        0.3112088143825531,
        0.6097931265830994,
        0.9793159365653992
      ],
      "min": [
        -0.3112088143825531,
        -0.6139418482780457,
        -0.6097931265830994
      ],
      "type": "VEC3"
    },
    {
      "bufferView": 2,
      "byteOffset": 28020,
      "componentType": 5126,
      "count": 2335,
      "max": [
        1.0,
        1.0,
        1.0
      ],
      "min": [
        -1.0,
        -1.0,
        -1.0
      ],
      "type": "VEC3"
    },
    {
      "bufferView": 1,
      "componentType": 5126,
      "count": 2335,
      "max": [
        0.8750000596046448,
        1.0
      ],
      "min": [
        0.0,
        0.0
      ],
      "type": "VEC2"
    },
    {
      "bufferView": 0,
      "componentType": 5125,
      "count": 9498,
      "type": "SCALAR"
    },
    {
      "bufferView": 2,
      "byteOffset": 56040,
      "componentType": 5126,
      "count": 39,
      "max": [
        0.26936405897140503,
        -0.6008013486862183,
        0.7731735706329346
      ],
      "min": [
        0.24345795810222626,
        -0.612060010433197,
        0.6600441336631775
      ],
      "type": "VEC3"
    },
    {
      "bufferView": 2,
      "byteOffset": 56508,
      "componentType": 5126,
      "count": 39,
      "max": [
        0.9139838814735413,
        0.9995931386947632,
        0.9136273264884949
      ],
      "min": [
        -0.9139874577522278,
        -0.9990091323852539,
        -0.9136315584182739
      ],
      "type": "VEC3"
    },
    {
      "bufferView": 1,
      "byteOffset": 18680,
      "componentType": 5126,
      "count": 39,
      "max": [
        0.5928743481636047,
        0.7747753858566284
      ],
      "min": [
        0.0,
        0.0
      ],
      "type": "VEC2"
    },
    {
      "bufferView": 0,
      "byteOffset": 37992,
      "componentType": 5125,
      "count": 96,
      "type": "SCALAR"
    },
    {
      "bufferView": 2,
      "byteOffset": 56976,
      "componentType": 5126,
      "count": 1243,
      "max": [
        1.341322660446167,
        0.18921992182731628,
        1.9642363786697388
      ],
      "min": [
        -1.341322660446167,
        -0.6935771107673645,
        -0.03035290725529194
      ],
      "type": "VEC3"
    },
    {
      "bufferView": 2,
      "byteOffset": 71892,
      "componentType": 5126,
      "count": 1243,
      "max": [
        0.9998519420623779,
        0.9998247623443604,
        0.9996445178985596
      ],
      "min": [
        -0.9998519420623779,
        -0.9998348355293274,
        -0.99964439868927
      ],
      "type": "VEC3"
    },
    {
      "bufferView": 1,
      "byteOffset": 18992,
      "componentType": 5126,
      "count": 1243,
      "max": [
        1.0000001192092896,
        1.0000001192092896
      ],
      "min": [
        0.0,
        0.0
      ],
      "type": "VEC2"
    },
    {
      "bufferView": 0,
      "byteOffset": 38376,
      "componentType": 5125,
      "count": 6546,
      "type": "SCALAR"
    },
    {
      "bufferView": 2,
      "byteOffset": 86808,
      "componentType": 5126,
      "count": 4,
      "max": [
        1.309487223625183,
        -0.2449619621038437,
        1.9324010610580444
      ],
      "min": [
        -1.309487223625183,
        -0.2449619621038437,
        0.3688160479068756
      ],
      "type": "VEC3"
    },
    {
      "bufferView": 2,
      "byteOffset": 86856,
      "componentType": 5126,
      "count": 4,
      "max": [
        0.03028610162436962,
        -0.9990821480751038,
        0.030291186645627022
      ],
      "min": [
        -0.0302900280803442,
        -0.9990823864936829,
        -0.03029157593846321
      ],
      "type": "VEC3"
    },
    {
      "bufferView": 1,
      "byteOffset": 28936,
      "componentType": 5126,
      "count": 4,
      "max": [
        0.6201090812683105,
        0.9970331788063049
      ],
      "min": [
        0.37989094853401184,
        0.7529668211936951
      ],
      "type": "VEC2"
    },
    {
      "bufferView": 0,
      "byteOffset": 64560,
      "componentType": 5125,
      "count": 6,
      "type": "SCALAR"
    },
    {
      "bufferView": 2,
      "byteOffset": 86904,
      "componentType": 5126,
      "count": 1440,
      "max": [
        1.0610482692718506,
        0.38367584347724915,
        0.007323011290282011
      ],
      "min": [
        -1.0610482692718506,
        -0.38367584347724915,
        -0.05280114337801933
      ],
      "type": "VEC3"
    },
    {
      "bufferView": 2,
      "byteOffset": 104184,
      "componentType": 5126,
      "count": 1440,
      "max": [
        0.9999989867210388,
        0.9999995827674866,
        0.9997248649597168
      ],
      "min": [
        -0.9999989867210388,
        -0.9999995827674866,
        -0.9997248649597168
      ],
      "type": "VEC3"
    },
    {
      "bufferView": 1,
      "byteOffset": 28968,
      "componentType": 5126,
      "count": 1440,
      "max": [
        1.0015000104904175,
        1.0025198459625244
      ],
      "min": [
        -0.00227976287715137,
        0.0
      ],
      "type": "VEC2"
    },
    {
      "bufferView": 0,
      "byteOffset": 64584,
      "componentType": 5125,
      "count": 3012,
      "type": "SCALAR"
    },
    {
      "bufferView": 2,
      "byteOffset": 121464,
      "componentType": 5126,
      "count": 312,
      "max": [
        0.9675490856170654,
        0.3528079688549042,
        0.007323011290282011
      ],
      "min": [
        -0.9727843403816223,
        -0.3297119140625,
        0.007323011290282011
      ],
      "type": "VEC3"
    },
    {
      "bufferView": 2,
      "byteOffset": 125208,
      "componentType": 5126,
      "count": 312,
      "max": [
        3.842848705915003e-09,
        0.0,
        1.0
      ],
      "min": [
        -6.5757879141870035e-09,
        0.0,
        1.0
      ],
      "type": "VEC3"
    },
    {
      "bufferView": 1,
      "byteOffset": 40488,
      "componentType": 5126,
      "count": 312,
      "max": [
        0.9151505827903748,
        0.8275023102760315
      ],
      "min": [
        0.08569157868623734,
        0.1765398383140564
      ],
      "type": "VEC2"
    },
    {
      "bufferView": 0,
      "byteOffset": 76632,
      "componentType": 5125,
      "count": 468,
      "type": "SCALAR"
    }
  ],
  "asset": {
    "extras": {
      "author": "Rakshaan (https://sketchfab.com/rakshaan)",
      "license": "CC-BY-4.0 (http://creativecommons.org/licenses/by/4.0/)",
      "source": "https://sketchfab.com/3d-models/desktop-pc-7030da42a907455ea98fabedca0a5192",
      "title": "Desktop PC"
    },
    "generator": "Sketchfab-14.81.0",
    "version": "2.0"
  },
  "bufferViews": [
    {
      "buffer": 0,
      "byteLength": 78504,
      "name": "floatBufferViews",
      "target": 34963
    },
    {
      "buffer": 0,
      "byteLength": 42984,
      "byteOffset": 78504,
      "byteStride": 8,
      "name": "floatBufferViews",
      "target": 34962
    },
    {
      "buffer": 0,
      "byteLength": 128952,
      "byteOffset": 121488,
      "byteStride": 12,
      "name": "floatBufferViews",
      "target": 34962
    }
  ],
  "buffers": [
    {
      "byteLength": 250440,
      "uri": "scene.bin"
    }
  ],
  "extensionsUsed": [
    "KHR_materials_emissive_strength",
    "KHR_materials_specular"
  ],
  "images": [
    {
      "uri": "textures/Keyboard_baseColor.png"
    }
  ],
  "materials": [
    {
      "doubleSided": true,
      "extensions": {
        "KHR_materials_emissive_strength": {
          "emissiveStrength": 10.0
        }
      },
      "name": "Base",
      "pbrMetallicRoughness": {
        "baseColorFactor": [
          0.065293,
          0.065293,
          0.065293,
          1.0
        ],
        "metallicFactor": 0.6495083713295773,
        "roughnessFactor": 0.44302604075136603
      }
    },
    {
      "doubleSided": true,
      "emissiveFactor": [
        0.0,
        0.0181785,
        1.0
      ],
      "name": "Emission",
      "pbrMetallicRoughness": {
        "baseColorFactor": [
          0.0,
          0.00626585,
          0.8,
          1.0
        ],
        "metallicFactor": 0.0,
        "roughnessFactor": 0.9860824141872481
      }
    },
    {
      "doubleSided": true,
      "extensions": {
        "KHR_materials_specular": {
          "specularColorFactor": [
            1.0,
            1.0,
            1.0
          ],
          "specularFactor": 0.46731807964292027
        }
      },
      "name": "Screen",
      "pbrMetallicRoughness": {
        "baseColorFactor": [
          0.05429463240615386,
          0.05429463240615386,
          0.05429463240615386,
          1.0
        ],
        "metallicFactor": 0.0,
        "roughnessFactor": 0.163667593498492
      }
    },
    {
      "doubleSided": true,
      "extensions": {
        "KHR_materials_specular": {
          "specularColorFactor": [
            1.0,
            1.0,
            1.0
          ],
          "specularFactor": 0.29727380740204046
        }
      },
      "name": "Keyboard",
      "pbrMetallicRoughness": {
        "baseColorTexture": {
          "index": 0
        },
        "metallicFactor": 0.3883689532453689,
        "roughnessFactor": 0.8211145618000169
      }
    }
  ],
  "meshes": [
    {
      "name": "Cube.001_Base_0",
      "primitives": [
        {
          "attributes": {
            "NORMAL": 1,
            "POSITION": 0,
            "TEXCOORD_0": 2
          },
          "indices": 3,
          "material": 0,
          "mode": 4
        }
      ]
    },
    {
      "name": "Cube.001_Emission_0",
      "primitives": [
        {
          "attributes": {
            "NORMAL": 5,
            "POSITION": 4,
            "TEXCOORD_0": 6
          },
          "indices": 7,
          "material": 1,
          "mode": 4
        }
      ]
    },
    {
      "name": "Plane_Base_0",
      "primitives": [
        {
          "attributes": {
            "NORMAL": 9,
            "POSITION": 8,
            "TEXCOORD_0": 10
          },
          "indices": 11,
          "material": 0,
          "mode": 4
        }
      ]
    },
    {
      "name": "Plane_Screen_0",
      "primitives": [
        {
          "attributes": {
            "NORMAL": 13,
            "POSITION": 12,
            "TEXCOORD_0": 14
          },
          "indices": 15,
          "material": 2,
          "mode": 4
        }
      ]
    },
    {
      "name": "Plane.001_Base_0",
      "primitives": [
        {
          "attributes": {
            "NORMAL": 17,
            "POSITION": 16,
            "TEXCOORD_0": 18
          },
          "indices": 19,
          "material": 0,
          "mode": 4
        }
      ]
    },
    {
      "name": "Plane.001_Keyboard_0",
      "primitives": [
        {
          "attributes": {
            "NORMAL": 21,
            "POSITION": 20,
            "TEXCOORD_0": 22
          },
          "indices": 23,
          "material": 3,
          "mode": 4
        }
      ]
    }
  ],
  "nodes": [
    {
      "children": [
        1
      ],
      "matrix": [
        1.0,
        0.0,
        0.0,
        0.0,
        0.0,
        2.220446049250313e-16,
        -1.0,
        0.0,
        0.0,
        1.0,
        2.220446049250313e-16,
        0.0,
        0.0,
        0.0,
        0.0,
        1.0
      ],
      "name": "Sketchfab_model"
    },
    {
      "children": [
        2
      ],
      "matrix": [
        0.009999999776482582,
        0.0,
        0.0,
        0.0,
        0.0,
        0.0,
        0.009999999776482582,
        0.0,
        0.0,
        -0.009999999776482582,
        0.0,
        0.0,
        0.0,
        0.0,
        0.0,
        1.0
      ],
      "name": "7d314120e0bb4e639348614bff5f0e56.fbx"
    },
    {
      "children": [
        3,
        6,
        9
      ],
      "name": "RootNode"
    },
    {
      "children": [
        4,
        5
      ],
      "matrix": [
        97.02455750231857,
        -1.0281485288143877e-06,
        -24.212295254256137,
        0.0,
        -24.212295254255988,
        -1.603549544260119e-05,
        -97.02455750231731,
        0.0,
        -2.885004939112701e-06,
        99.9999999999987,
        -1.5807306863457882e-05,
        0.0,
        -239.46792602539063,
        45.081634521484375,
        -27.3142032623291,
        1.0
      ],
      "name": "Cube.001"
    },
    {
      "mesh": 0,
      "name": "Cube.001_Base_0"
    },
    {
      "mesh": 1,
      "name": "Cube.001_Emission_0"
    },
    {
      "children": [
        7,
        8
      ],
      "matrix": [
        97.02455750231857,
        -1.0281485288143877e-06,
        -24.212295254256137,
        0.0,
        -24.212295254255988,
        -1.603549544260119e-05,
        -97.02455750231731,
        0.0,
        -2.885004939112701e-06,
        99.9999999999987,
        -1.5807306863457882e-05,
        0.0,
        -41.703670501708984,
        -9.69419002532959,
        -140.4466094970703,
        1.0
      ],
      "name": "Plane"
    },
    {
      "mesh": 2,
      "name": "Plane_Base_0"
    },
    {
      "mesh": 3,
      "name": "Plane_Screen_0"
    },
    {
      "children": [
        10,
        11
      ],
      "matrix": [
        97.02455750231857,
        -1.0281485288143877e-06,
        -24.212295254256137,
        0.0,
        -24.212295254255988,
        -1.603549544260119e-05,
        -97.02455750231731,
        0.0,
        -2.885004939112701e-06,
        99.9999999999987,
        -1.5807306863457882e-05,
        0.0,
        -13.38985538482666,
        -10.816187858581543,
        -26.986276626586914,
        1.0
      ],
      "name": "Plane.001"
    },
    {
      "mesh": 4,
      "name": "Plane.001_Base_0"
    },
    {
      "mesh": 5,
      "name": "Plane.001_Keyboard_0"
    }
  ],
  "samplers": [
    {
      "magFilter": 9729,
      "minFilter": 9987,
      "wrapS": 10497,
      "wrapT": 10497
    }
  ],
  "scene": 0,
  "scenes": [
    {
      "name": "Sketchfab_Scene",
      "nodes": [
        0
      ]
    }
  ],
  "textures": [
    {
      "sampler": 0,
      "source": 0
    }
  ]
}
